<svg width="32" height="32" viewBox="0 0 32 32" fill="none" xmlns="http://www.w3.org/2000/svg">
<g clip-path="url(#clip0_1_17320)">
<g filter="url(#filter0_d_1_17320)">
<path fill-rule="evenodd" clip-rule="evenodd" d="M28.7992 16.0002C28.7992 23.0694 23.0685 28.8002 15.9992 28.8002C8.92997 28.8002 3.19922 23.0694 3.19922 16.0002C3.19922 8.93095 8.92997 3.2002 15.9992 3.2002C23.0685 3.2002 28.7992 8.93095 28.7992 16.0002ZM11.1992 12.8002C11.1992 11.9165 11.9156 11.2002 12.7992 11.2002C13.6829 11.2002 14.3992 11.9165 14.3992 12.8002V19.2002C14.3992 20.0839 13.6829 20.8002 12.7992 20.8002C11.9156 20.8002 11.1992 20.0839 11.1992 19.2002V12.8002ZM19.1992 11.2002C18.3156 11.2002 17.5992 11.9165 17.5992 12.8002V19.2002C17.5992 20.0839 18.3156 20.8002 19.1992 20.8002C20.0829 20.8002 20.7992 20.0839 20.7992 19.2002V12.8002C20.7992 11.9165 20.0829 11.2002 19.1992 11.2002Z" fill="white"/>
</g>
</g>
<defs>
<filter id="filter0_d_1_17320" x="-0.800781" y="-0.799805" width="33.6001" height="33.6001" filterUnits="userSpaceOnUse" color-interpolation-filters="sRGB">
<feFlood flood-opacity="0" result="BackgroundImageFix"/>
<feColorMatrix in="SourceAlpha" type="matrix" values="0 0 0 0 0 0 0 0 0 0 0 0 0 0 0 0 0 0 127 0" result="hardAlpha"/>
<feOffset/>
<feGaussianBlur stdDeviation="2"/>
<feComposite in2="hardAlpha" operator="out"/>
<feColorMatrix type="matrix" values="0 0 0 0 0 0 0 0 0 0 0 0 0 0 0 0 0 0 0.75 0"/>
<feBlend mode="normal" in2="BackgroundImageFix" result="effect1_dropShadow_1_17320"/>
<feBlend mode="normal" in="SourceGraphic" in2="effect1_dropShadow_1_17320" result="shape"/>
</filter>
<clipPath id="clip0_1_17320">
<rect width="32" height="32" fill="white"/>
</clipPath>
</defs>
</svg>
