<svg width="32" height="32" viewBox="0 0 32 32" fill="none" xmlns="http://www.w3.org/2000/svg">
<g clip-path="url(#clip0_1_17318)">
<g filter="url(#filter0_d_1_17318)">
<path fill-rule="evenodd" clip-rule="evenodd" d="M28.8 16C28.8 23.0692 23.0692 28.8 16 28.8C8.93071 28.8 3.19995 23.0692 3.19995 16C3.19995 8.93071 8.93071 3.19995 16 3.19995C23.0692 3.19995 28.8 8.93071 28.8 16ZM15.1006 9.66957C15.4171 9.81109 15.6235 10.1445 15.6235 10.5143V21.4856C15.6235 21.8554 15.4171 22.1888 15.1006 22.3303C14.7841 22.4718 14.4197 22.3936 14.1775 22.1321L11.0373 18.7428H8.84701C8.37919 18.7428 7.99995 18.3335 7.99995 17.8285V14.1714C7.99995 13.6664 8.37919 13.2571 8.84701 13.2571H11.0373L14.1775 9.86776C14.4197 9.60628 14.7841 9.52806 15.1006 9.66957ZM17.9124 13.1124C18.3289 12.6958 19.0043 12.6958 19.4209 13.1124L20.8 14.4915L22.179 13.1124C22.5956 12.6958 23.271 12.6958 23.6875 13.1124C24.1041 13.5289 24.1041 14.2043 23.6875 14.6209L22.3084 16L23.6875 17.379C24.1041 17.7956 24.1041 18.471 23.6875 18.8875C23.271 19.3041 22.5956 19.3041 22.179 18.8875L20.8 17.5084L19.4209 18.8875C19.0043 19.3041 18.3289 19.3041 17.9124 18.8875C17.4958 18.471 17.4958 17.7956 17.9124 17.379L19.2915 16L17.9124 14.6209C17.4958 14.2043 17.4958 13.5289 17.9124 13.1124Z" fill="#F7F8F6"/>
</g>
</g>
<defs>
<filter id="filter0_d_1_17318" x="-0.800049" y="-0.800049" width="33.6001" height="33.6001" filterUnits="userSpaceOnUse" color-interpolation-filters="sRGB">
<feFlood flood-opacity="0" result="BackgroundImageFix"/>
<feColorMatrix in="SourceAlpha" type="matrix" values="0 0 0 0 0 0 0 0 0 0 0 0 0 0 0 0 0 0 127 0" result="hardAlpha"/>
<feOffset/>
<feGaussianBlur stdDeviation="2"/>
<feComposite in2="hardAlpha" operator="out"/>
<feColorMatrix type="matrix" values="0 0 0 0 0 0 0 0 0 0 0 0 0 0 0 0 0 0 0.75 0"/>
<feBlend mode="normal" in2="BackgroundImageFix" result="effect1_dropShadow_1_17318"/>
<feBlend mode="normal" in="SourceGraphic" in2="effect1_dropShadow_1_17318" result="shape"/>
</filter>
<clipPath id="clip0_1_17318">
<rect width="32" height="32" fill="white"/>
</clipPath>
</defs>
</svg>
